# xmcd
#
# Track frame offsets: 
#        150
#        5287
#        24100
#        40050
#        63125
#        89550
#        111537
#        130412
#        146087
#        173587
#
# Disc length: 2470 seconds
#
# Revision: 3
# Processed by: cddbd v1.4PL0 Copyright (c) Steve Scherf et al.
# Submitted via: ExactAudioCopy v0.90b4
#
DISCID=7d09a40a
DTITLE=Boyz II Men - Christmas Interpretations
DYEAR=1993
DGENRE=R&B
TTITLE0=Silent Night (Intro)
TTITLE1=Let It Snow
TTITLE2=Share Love
TTITLE3=You're Not Alone
TTITLE4=A Joyous Song
TTITLE5=Why Christmas
TTITLE6=Cold December Nights
TTITLE7=Do They Know
TTITLE8=Who Would Have Thought
TTITLE9=Silent Night
EXTD=
EXTT0=
EXTT1=
EXTT2=
EXTT3=
EXTT4=
EXTT5=
EXTT6=
EXTT7=
EXTT8=
EXTT9=
PLAYORDER=
